<svg width="24" height="28" viewBox="0 0 24 28" fill="none" xmlns="http://www.w3.org/2000/svg">
<path d="M3 15.1668H9V12.8335H3V2.15379C3.00001 2.05242 3.02267 1.95281 3.06573 1.86477C3.1088 1.77673 3.17078 1.7033 3.24558 1.65172C3.32037 1.60014 3.4054 1.57219 3.49227 1.57063C3.57915 1.56906 3.66487 1.59393 3.741 1.64279L22.203 13.4891C22.2814 13.5395 22.3468 13.6135 22.3923 13.7033C22.4378 13.7932 22.4618 13.8957 22.4618 14.0001C22.4618 14.1045 22.4378 14.207 22.3923 14.2969C22.3468 14.3868 22.2814 14.4608 22.203 14.5111L3.741 26.3575C3.66487 26.4063 3.57915 26.4312 3.49227 26.4296C3.4054 26.4281 3.32037 26.4001 3.24558 26.3485C3.17078 26.2969 3.1088 26.2235 3.06573 26.1355C3.02267 26.0474 3.00001 25.9478 3 25.8465V15.1668Z" fill="white"/>
</svg>
