<svg width="65" height="45" viewBox="0 0 65 45" fill="none" xmlns="http://www.w3.org/2000/svg">
<rect width="65" height="45" fill="#1E1E1E"/>
<g id="Desktop - 1" clip-path="url(#clip0_0_1)">
<rect width="1440" height="1526" transform="translate(-60 -20)" fill="#A6FFFF"/>
<g id="header" filter="url(#filter0_i_0_1)">
<path d="M-60 -20H1380V31C1380 53.0914 1362.09 71 1340 71H-20C-42.0914 71 -60 53.0914 -60 31V-20Z" fill="white"/>
<g id="logo" clip-path="url(#clip1_0_1)">
<path id="Vector" d="M16.9895 1.60047C16.9896 1.39926 16.9451 1.20048 16.8591 1.01819C16.7732 0.835903 16.6478 0.674553 16.492 0.545548C16.1803 0.256366 15.768 0.0974505 15.341 0.10189C15.0441 0.0971592 14.752 0.175777 14.4984 0.328649C14.2188 0.505062 14.0064 0.768685 13.8947 1.07794L8.58754 12.7642L3.26707 1.05493C3.1505 0.763818 2.94555 0.51576 2.68054 0.345036C2.41553 0.174312 2.10354 0.0893498 1.78768 0.10189C1.33521 0.0996895 0.896683 0.256939 0.550443 0.545548C0.3778 0.672524 0.237919 0.838158 0.142223 1.02892C0.046528 1.21969 -0.00226806 1.43017 -0.000179832 1.64319C-0.00202969 1.85239 0.0444913 2.05924 0.135817 2.24788L6.76982 16.2214L4.40148 21.2298C4.30179 21.444 4.2433 21.6747 4.229 21.9101C4.22603 22.1074 4.26979 22.3026 4.35677 22.4801C4.44376 22.6576 4.57154 22.8125 4.72987 22.9322C5.04186 23.1944 5.4386 23.3367 5.8477 23.3331C6.1479 23.3318 6.44103 23.2426 6.69022 23.0768C6.96223 22.8998 7.17385 22.6455 7.29723 22.3472L16.8535 2.24788C16.9439 2.04384 16.9903 1.82331 16.9895 1.60047Z" fill="#2963A3"/>
<path id="Vector_2" d="M50.3521 15.6397C50.3419 15.8508 50.3765 16.0616 50.4536 16.2586C50.5307 16.4556 50.6487 16.6343 50.7999 16.7834C50.9573 16.9269 51.1417 17.0383 51.3427 17.111C51.5436 17.1837 51.757 17.2165 51.9708 17.2073C52.4367 17.2272 52.8922 17.067 53.2412 16.7604C53.402 16.6143 53.5294 16.4357 53.6146 16.2368C53.6999 16.0378 53.7411 15.823 53.7354 15.6069V1.73847C53.7469 1.51352 53.7117 1.28863 53.6318 1.07776C53.5519 0.866888 53.4291 0.67454 53.271 0.51266C52.9127 0.224103 52.4643 0.0679504 52.0026 0.0709481C51.5409 0.0739459 51.0946 0.235908 50.7401 0.529092C50.5796 0.686493 50.4538 0.875333 50.371 1.08356C50.2882 1.29179 50.2501 1.51484 50.2592 1.73847V9.74731C50.2592 11.1758 49.8523 12.3227 49.0385 13.1881C48.6214 13.6214 48.1155 13.9611 47.5548 14.1844C46.9941 14.4078 46.3916 14.5095 45.7879 14.4829C44.6446 14.4829 43.7966 14.1653 43.2437 13.5299C42.6909 12.8945 42.4156 11.9086 42.4178 10.5722V1.73847C42.4293 1.51352 42.394 1.28863 42.3142 1.07776C42.2343 0.866888 42.1115 0.67454 41.9534 0.51266C41.7832 0.359029 41.5837 0.240643 41.3667 0.164455C41.1497 0.0882677 40.9195 0.0558147 40.6896 0.0690025C40.4557 0.055212 40.2213 0.0873021 39.9998 0.163434C39.7784 0.239565 39.5744 0.358241 39.3993 0.51266C39.2397 0.673487 39.116 0.865666 39.036 1.0768C38.956 1.28794 38.9216 1.51334 38.9349 1.73847V10.6116C38.9349 15.0635 40.976 17.2895 45.0581 17.2895C46.1425 17.3041 47.2129 17.0464 48.1695 16.5402C49.0977 16.0413 49.8569 15.2822 50.3521 14.3581V15.6397Z" fill="#2963A3"/>
<path id="Vector_3" d="M19.5703 42.3643L18.605 42.2953C17.6895 42.2274 17.0073 41.9437 16.5584 41.4441C16.1139 40.9446 15.895 40.1592 15.895 39.0911V30.8457H19.2883C19.689 30.8756 20.0868 30.7587 20.4061 30.517C20.5415 30.3919 20.6471 30.2385 20.7154 30.068C20.7836 29.8975 20.8128 29.7142 20.8009 29.5311C20.8115 29.3482 20.7816 29.1652 20.7134 28.995C20.6453 28.8247 20.5404 28.6712 20.4061 28.5452C20.0923 28.2908 19.6931 28.1628 19.2883 28.187H15.8818V24.6772C15.8947 24.4507 15.8584 24.2241 15.7754 24.0126C15.6925 23.8011 15.5647 23.6098 15.4008 23.4514C15.051 23.144 14.5941 22.9836 14.1271 23.0044C13.8988 22.9926 13.6705 23.0257 13.4553 23.1018C13.2401 23.178 13.0422 23.2957 12.8732 23.4481C12.7137 23.6089 12.5899 23.8011 12.5099 24.0122C12.4299 24.2234 12.3955 24.4488 12.4088 24.6739V28.187H10.3457C9.94076 28.1622 9.54139 28.2902 9.22784 28.5452C9.09245 28.6705 8.98659 28.8238 8.91779 28.9942C8.84899 29.1646 8.81895 29.3479 8.8298 29.5311C8.8298 30.4075 9.33509 30.8457 10.3457 30.8457H12.4088V38.8545C12.4088 40.7836 12.8666 42.246 13.7854 43.2319C14.7042 44.2178 16.0874 44.7831 17.9449 44.9211L18.8737 44.9868C19.4135 45.064 19.9639 44.9623 20.4393 44.6976C20.6117 44.5854 20.7516 44.4306 20.8452 44.2485C20.9389 44.0664 20.983 43.8633 20.9734 43.6591C20.9828 43.4941 20.9583 43.3289 20.9012 43.1735C20.8442 43.0181 20.7559 42.8759 20.6417 42.7554C20.34 42.5079 19.9619 42.3699 19.5703 42.3643Z" fill="#2963A3"/>
<path id="Vector_4" d="M45.8974 20.6218C45.4406 20.6066 44.9942 20.7587 44.6436 21.0491C44.4726 21.2064 44.3392 21.3996 44.2532 21.6145C44.1671 21.8294 44.1305 22.0606 44.146 22.2913V43.3535C44.1294 43.5819 44.1656 43.811 44.2518 44.0234C44.338 44.2358 44.472 44.426 44.6436 44.5793C44.9988 44.8594 45.4437 45.004 45.8974 44.9868C46.3473 45.0059 46.7887 44.8609 47.138 44.5793C47.3046 44.423 47.4342 44.2319 47.5174 44.0199C47.6005 43.808 47.6352 43.5804 47.6189 43.3535V22.2913C47.6343 22.0621 47.5992 21.8323 47.5162 21.6178C47.4331 21.4034 47.3041 21.2093 47.138 21.0491C46.7933 20.7573 46.3504 20.6048 45.8974 20.6218V20.6218Z" fill="#2963A3"/>
<path id="Vector_5" d="M64.3796 42.1244L57.6394 36.2287L63.7626 30.6748C63.9401 30.5284 64.0842 30.3464 64.1854 30.1408C64.2866 29.9351 64.3426 29.7105 64.3497 29.4819C64.3388 29.0602 64.1646 28.6589 63.8633 28.361C63.562 28.0631 63.1566 27.8914 62.731 27.8814C62.3022 27.9086 61.8985 28.0911 61.5966 28.3941L53.7552 35.6503V22.2913C53.7712 22.062 53.7365 21.8321 53.6534 21.6175C53.5703 21.4029 53.4409 21.2089 53.2742 21.0491C52.9309 20.7573 52.489 20.6047 52.037 20.6219C51.5792 20.6064 51.1317 20.7585 50.7799 21.0491C50.6089 21.2064 50.4755 21.3996 50.3894 21.6145C50.3034 21.8294 50.2668 22.0606 50.2823 22.2913V43.324C50.2667 43.5551 50.3033 43.7869 50.3894 44.0023C50.4754 44.2177 50.6088 44.4115 50.7799 44.5695C51.1322 44.8589 51.5796 45.0098 52.037 44.9934C52.4886 45.0115 52.9304 44.8601 53.2742 44.5695C53.441 44.409 53.5704 44.2144 53.6535 43.9993C53.7365 43.7842 53.7712 43.5537 53.7552 43.324V37.0142L62.3197 44.5103C62.6311 44.8163 63.0521 44.9876 63.4906 44.9869C63.6922 44.9879 63.8917 44.9459 64.0754 44.8636C64.2592 44.7814 64.4229 44.6609 64.5554 44.5103C64.8527 44.2082 65.0173 43.8018 65.0131 43.3798C65.0122 43.1364 64.9546 42.8964 64.8447 42.6786C64.7348 42.4609 64.5756 42.2712 64.3796 42.1244V42.1244Z" fill="#2963A3"/>
<path id="Vector_6" d="M19.5437 17.2764H28.4598C29.9787 17.309 31.4796 16.9452 32.8117 16.2214C34.0535 15.521 35.0587 14.4726 35.7008 13.2079C36.4004 11.7926 36.7473 10.2318 36.7125 8.65626C36.7513 7.07088 36.4043 5.49955 35.7008 4.07508C35.0607 2.80723 34.0552 1.75613 32.8117 1.05493C31.4796 0.331191 29.9787 -0.0326221 28.4598 7.28477e-06H25.6437C24.1258 -0.0326626 22.626 0.331171 21.2951 1.05493C20.05 1.75423 19.044 2.80585 18.406 4.07508C17.7013 5.49927 17.3532 7.07061 17.391 8.65626V13.474C17.391 16.251 18.1074 17.2764 19.5437 17.2764ZM22.1376 4.27226C22.9646 3.26445 24.1333 2.76054 25.6437 2.76054H28.4598C29.9724 2.76054 31.1421 3.26664 31.9692 4.27884C32.7962 5.29103 33.2086 6.75017 33.2064 8.65626C33.2064 10.5864 32.7995 12.0511 31.9858 13.0501C31.172 14.0492 29.9967 14.5498 28.4598 14.552H20.9402C20.9402 14.552 20.897 10.5853 20.897 8.65626C20.897 6.72717 21.3117 5.28775 22.1376 4.27226Z" fill="#2963A3"/>
<path id="Vector_7" d="M37.7376 28.7786C36.4073 28.0526 34.9073 27.6876 33.389 27.7203H30.5728C29.0537 27.6892 27.5529 28.0541 26.2209 28.7786C24.9775 29.4784 23.9719 30.5284 23.3318 31.7954C22.6359 33.2219 22.2947 34.7927 22.3367 36.3766C22.2979 37.9506 22.6391 39.5111 23.3318 40.9282C23.973 42.1936 24.9784 43.2423 26.2209 43.9418C27.5532 44.6651 29.054 45.0289 30.5728 44.9967H39.4889C40.9285 44.9967 41.6417 43.9714 41.6417 41.1845V36.3766C41.6802 34.7909 41.332 33.2194 40.6267 31.7954C39.9885 30.5271 38.9825 29.4765 37.7376 28.7786V28.7786ZM38.0925 42.2723H30.5728C29.0404 42.2723 27.8651 41.7728 27.0469 40.7737C26.2287 39.7747 25.8229 38.309 25.8295 36.3766C25.8295 34.4661 26.2419 33.007 27.0668 31.9992C27.8916 30.9914 29.0603 30.4853 30.5728 30.4809H33.389C34.9015 30.4809 36.0713 30.987 36.8984 31.9992C37.7254 33.0114 38.1411 34.4705 38.1456 36.3766C38.1456 38.3057 38.0925 42.2723 38.0925 42.2723V42.2723Z" fill="#2963A3"/>
</g>
</g>
</g>
<defs>
<filter id="filter0_i_0_1" x="-60" y="-20" width="1440" height="91" filterUnits="userSpaceOnUse" color-interpolation-filters="sRGB">
<feFlood flood-opacity="0" result="BackgroundImageFix"/>
<feBlend mode="normal" in="SourceGraphic" in2="BackgroundImageFix" result="shape"/>
<feColorMatrix in="SourceAlpha" type="matrix" values="0 0 0 0 0 0 0 0 0 0 0 0 0 0 0 0 0 0 127 0" result="hardAlpha"/>
<feOffset dy="-2"/>
<feComposite in2="hardAlpha" operator="arithmetic" k2="-1" k3="1"/>
<feColorMatrix type="matrix" values="0 0 0 0 0.937255 0 0 0 0 0.94902 0 0 0 0 0.94902 0 0 0 1 0"/>
<feBlend mode="normal" in2="shape" result="effect1_innerShadow_0_1"/>
</filter>
<clipPath id="clip0_0_1">
<rect width="1440" height="1526" fill="white" transform="translate(-60 -20)"/>
</clipPath>
<clipPath id="clip1_0_1">
<rect width="65" height="45" fill="white"/>
</clipPath>
</defs>
</svg>
